{"title":"The China Syndrome(1979)MPEG-4[DaScubaDude]","uid":15021067,"size":1356935388,"categoryP":"video","categoryS":"movies","magnet":"?xt=urn:btih:8a4d09d17d741e5b48598191e9ad07950a3ccea4&amp;dn=The+China+Syndrome%281979%29MPEG-4%5BDaScubaDude%5D&amp;tr=udp%3A%2F%2Ftracker.leechers-paradise.org%3A6969&amp;tr=udp%3A%2F%2Fzer0day.ch%3A1337&amp;tr=udp%3A%2F%2Fopen.demonii.com%3A1337&amp;tr=udp%3A%2F%2Ftracker.coppersurfer.tk%3A6969&amp;tr=udp%3A%2F%2Fexodus.desync.com%3A6969","seeders":1,"leechers":0,"uploader":"dascuba","files":1,"time":1466474989,"description":"The China Syndrome (1979)\r\nPG | 2h 2min | Drama, Thriller | 16 March 1979 (USA)\r\nA reporter finds what appears to be a cover-up of safety hazards at a nuclear power plant.\r\nDirector: James Bridges\r\nWriters: Mike Gray, T.S. Cook | \r\nStars: Jane Fonda, Jack Lemmon, Michael Douglas |\r\n\r\nGeneral\r\nComplete name                            : ChinaSyndromeDVD_VIDEO_Title1.mp4\r\nFormat                                   : MPEG-4\r\nFormat profile                           : Base Media\r\nCodec ID                                 : isom (isom/iso2/avc1/mp41)\r\nFile size                                : 1.26 GiB\r\nDuration                                 : 2h 2mn\r\nOverall bit rate                         : 1 480 Kbps\r\nMovie name                               : DVD_VIDEO\r\nGenre                                    : Thriller\r\nWriting application                      : Lavf54.6.100\r\n\r\nVideo\r\nID                                       : 1\r\nFormat                                   : AVC\r\nFormat/Info                              : Advanced Video Codec\r\nFormat profile                           :   \r\nFormat settings, CABAC                   : No\r\nFormat settings, ReFrames                : 6 frames\r\nCodec ID                                 : avc1\r\nCodec ID/Info                            : Advanced Video Coding\r\nDuration                                 : 2h 2mn\r\nBit rate                                 : 1 202 Kbps\r\nWidth                                    : 720 pixels\r\nHeight                                   : 404 pixels\r\nDisplay aspect ratio                     : 16:9\r\nFrame rate mode                          : Constant\r\nFrame rate                               : 29.970 (30000/1001) fps\r\nColor space                              : YUV\r\nChroma subsampling                       : 4:2:0\r\nBit depth                                : 8 bits\r\nScan type                                : Progressive\r\nBits/(Pixel*Frame)                       : 0.138\r\nStream size                              : 1.03 GiB (81%)\r\n\r\nAudio\r\nID                                       : 2\r\nFormat                                   : AAC\r\nFormat/Info                              : Advanced Audio Codec\r\nFormat profile                           : LC\r\nCodec ID                                 : 40\r\nDuration                                 : 2h 2mn\r\nBit rate mode                            : Constant\r\nBit rate                                 : 271 Kbps\r\nChannel(s)                               : 2 channels\r\nChannel(s)_Original                      : 6 channels\r\nChannel positions                        : Front: L C R, Side: L R, LFE\r\nSampling rate                            : 44.1 KHz\r\nFrame rate                               : 43.066 fps (1024 spf)\r\nCompression mode                         : Lossy\r\nStream size                              : 237 MiB (18%)\r\nDefault                                  : Yes\r\nAlternate group                          : 1","torrent":{"xt":"urn:btih:8a4d09d17d741e5b48598191e9ad07950a3ccea4","amp;dn":"The+China+Syndrome%281979%29MPEG-4%5BDaScubaDude%5D","amp;tr":["udp%3A%2F%2Ftracker.leechers-paradise.org%3A6969","udp%3A%2F%2Fzer0day.ch%3A1337","udp%3A%2F%2Fopen.demonii.com%3A1337","udp%3A%2F%2Ftracker.coppersurfer.tk%3A6969","udp%3A%2F%2Fexodus.desync.com%3A6969"],"infoHash":"8a4d09d17d741e5b48598191e9ad07950a3ccea4","infoHashBuffer":{"type":"Buffer","data":[138,77,9,209,125,116,30,91,72,89,129,145,233,173,7,149,10,60,206,164]},"announce":[],"urlList":[]}}